PathFileType	4	(X/Y/Z)	/Users/itak/Documents/Research/Walk-IL/dataset/trc/00257_00009.trc
DataRate	CameraRate	NumFrames	NumMarkers	Units	OrigDataRate	OrigDataStartFrame	OrigNumFrames
100.000000	100.000000	4	53	mm	100.000000	199	533
Frame#	Time	RPSI			LPSI			L3			STRN			T10			C7			CLAV			RBAK			LBAK			LSHO			LUPA			LAEL			LAOL			LWTS			LWPS			LFRA			LIFD			LHPS			LHTS			RSHO			RUPA			RAEL			RAOL			RWPS			RFRA			RIFD			RHTS			RHPS			RBHD			LFHD			RFHD			LBHD			LHIP			RHIP			RASI			LASI			LKNE			LTHI			LANK			LTIP			LTOE			LMT1			LMT5			LHEE			RKNE			RTHI			RANK			RTIP			RTOE			RMT5			RHEE			RWTS			RMT1			
		X1	Y1	Z1	X2	Y2	Z2	X3	Y3	Z3	X4	Y4	Z4	X5	Y5	Z5	X6	Y6	Z6	X7	Y7	Z7	X8	Y8	Z8	X9	Y9	Z9	X10	Y10	Z10	X11	Y11	Z11	X12	Y12	Z12	X13	Y13	Z13	X14	Y14	Z14	X15	Y15	Z15	X16	Y16	Z16	X17	Y17	Z17	X18	Y18	Z18	X19	Y19	Z19	X20	Y20	Z20	X21	Y21	Z21	X22	Y22	Z22	X23	Y23	Z23	X24	Y24	Z24	X25	Y25	Z25	X26	Y26	Z26	X27	Y27	Z27	X28	Y28	Z28	X29	Y29	Z29	X30	Y30	Z30	X31	Y31	Z31	X32	Y32	Z32	X33	Y33	Z33	X34	Y34	Z34	X35	Y35	Z35	X36	Y36	Z36	X37	Y37	Z37	X38	Y38	Z38	X39	Y39	Z39	X40	Y40	Z40	X41	Y41	Z41	X42	Y42	Z42	X43	Y43	Z43	X44	Y44	Z44	X45	Y45	Z45	X46	Y46	Z46	X47	Y47	Z47	X48	Y48	Z48	X49	Y49	Z49	X50	Y50	Z50	X51	Y51	Z51	X52	Y52	Z52	X53	Y53	Z53	

200	1.99	-1103.20849609375	1037.63037109375	469.6532592773438	-1140.585205078125	1039.055053710938	354.3666381835938	-1129.223022460938	1126.896606445312	397.6245727539062	-886.8031616210938	1296.000610351562	306.0420532226562	-1123.550170898438	1253.707275390625	403.4032592773438	-1048.246704101562	1509.72265625	375.5038146972656	-900.9207763671875	1415.641845703125	315.8113403320312	-1102.680053710938	1375.309692382812	473.3309936523438	-1111.399169921875	1477.618286132812	282.0110168457031	-1050.626953125	1474.34521484375	195.9016418457031	-1127.124145507812	1364.759155273438	137.7165222167969	-1168.802368164062	1161.984619140625	109.2538986206055	-1205.693359375	1151.28125	188.4822540283203	-1115.82861328125	909.147705078125	102.0174102783203	-1183.60595703125	910.1280517578125	50.03255081176758	-1181.739868164062	1056.107788085938	83.75756072998047	-1166.62353515625	727.6834106445312	96.02493286132812	-1188.229248046875	820.29638671875	42.06502151489258	-1122.707153320312	809.0061645507812	61.56836318969727	-936.5328979492188	1463.787231445312	511.0586242675781	-934.8202514648438	1400.924682617188	581.3155517578125	-957.8285522460938	1124.08251953125	639.1116943359375	-1018.464233398438	1118.578125	565.6259155273438	-880.478515625	890.0888671875	635.4553833007812	-930.5882568359375	1054.039916992188	643.4664306640625	-847.1596069335938	708.2709350585938	548.4237670898438	-814.4220581054688	780.58154296875	558.9383544921875	-845.8445434570312	781.6430053710938	624.195068359375	-963.1675415039062	1662.112426757812	409.9186096191406	-838.3284301757812	1685.300415039062	220.6229095458984	-785.6605224609375	1680.935791015625	305.4448852539062	-994.0547485351562	1668.607177734375	272.5309143066406	-1091.212524414062	971.6221923828125	187.2686614990234	-972.8526000976562	1002.199829101562	535.244140625	-896.8803100585938	1039.364990234375	465.0741271972656	-981.8607788085938	1012.049499511719	198.4397430419922	-1090.478759765625	488.6396484375	224.9085845947266	-1082.786376953125	631.9896240234375	197.3071899414062	-1376.6083984375	89.06226348876953	276.1722412109375	-1231.578125	301.2216186523438	240.2568817138672	-1178.864624023438	44.62752914428711	339.6836242675781	-1243.506713867188	51.04613494873047	379.0043334960938	-1258.09765625	43.92877960205078	264.6692504882812	-1431.391845703125	127.0076675415039	324.4382629394531	-847.8709106445312	525.4185791015625	460.3917846679688	-880.61865234375	787.7376098632812	516.3597412109375	-914.4553833007812	37.95224761962891	480.6405944824219	-836.2647705078125	402.4458312988281	442.6546936035156	-739.5126953125	44.69692230224609	355.1097106933594	-804.7530517578125	39.45450973510742	460.047119140625	-995.4093627929688	35.63476943969727	452.84716796875	-853.8550415039062	902.560302734375	556.2726440429688	-808.616943359375	40.35890960693359	339.2898254394531	
201	2	-1095.903076171875	1038.410522460938	470.7534790039062	-1134.196533203125	1039.806030273438	355.738525390625	-1122.507446289062	1127.6259765625	398.9542541503906	-881.0094604492188	1297.146362304688	305.7572937011719	-1116.902221679688	1254.411987304688	404.70556640625	-1042.36279296875	1510.568237304688	376.2925415039062	-895.318603515625	1416.753662109375	315.6539306640625	-1095.87841796875	1375.997802734375	474.5045776367188	-1106.14208984375	1478.430419921875	283.3082580566406	-1045.8720703125	1475.37255859375	196.8095092773438	-1122.685180664062	1365.86083984375	139.0861663818359	-1164.62841796875	1163.265625	110.5182723999023	-1200.988159179688	1152.4169921875	189.942138671875	-1110.565063476562	910.71630859375	102.3078918457031	-1178.666625976562	911.4784545898438	50.74143981933594	-1177.409912109375	1057.369384765625	84.858642578125	-1160.776123046875	729.0770874023438	96.40317535400391	-1182.9755859375	821.6472778320312	42.65053939819336	-1117.290893554688	810.5938110351562	61.83827972412109	-929.7637329101562	1464.864624023438	511.1401062011719	-927.4803466796875	1402.051391601562	581.437744140625	-949.3944702148438	1125.1103515625	639.2669677734375	-1010.622924804688	1119.482421875	566.216796875	-871.2990112304688	891.364501953125	634.3783569335938	-921.8342895507812	1055.152465820312	643.26611328125	-837.7298583984375	709.9819946289062	546.4287109375	-805.3057250976562	782.3809204101562	556.9824829101562	-836.2361450195312	783.0620727539062	622.4891967773438	-957.3721923828125	1663.0712890625	410.1958312988281	-833.1846313476562	1686.429565429688	220.4859619140625	-780.2445068359375	1681.939208984375	305.1268615722656	-988.6944580078125	1669.746704101562	272.9634094238281	-1085.971313476562	972.47119140625	188.4602966308594	-965.2474365234375	1003.060546875	535.5335693359375	-889.4237670898438	1040.241455078125	464.83154296875	-976.5614013671875	1013.024963378906	198.8635406494141	-1080.880249023438	488.7364196777344	222.1695709228516	-1074.853515625	632.4312744140625	196.0286254882812	-1373.80126953125	93.67652893066406	276.1158142089844	-1224.971435546875	303.7990417480469	238.74658203125	-1178.515014648438	44.43893432617188	339.7037353515625	-1242.376953125	52.19184494018555	378.8442687988281	-1257.107543945312	44.44643020629883	264.6069946289062	-1426.81640625	133.9438629150391	324.4019775390625	-844.9934692382812	524.9263916015625	460.3030395507812	-874.4403076171875	787.8933715820312	516.001953125	-914.40185546875	37.98671340942383	480.6175537109375	-834.338134765625	401.8700561523438	442.5201110839844	-739.5377807617188	44.62495040893555	354.9629211425781	-804.7549438476562	39.57456207275391	459.9317321777344	-995.4283447265625	35.6367073059082	452.8870239257812	-845.2354125976562	904.2011108398438	554.9904174804688	-808.6530151367188	40.27553939819336	339.2099304199219	
202	2.01	-1088.686889648438	1039.141723632812	471.8359069824219	-1127.931640625	1040.529907226562	357.1119384765625	-1115.883178710938	1128.335327148438	400.2727966308594	-875.25634765625	1298.235229492188	305.4110107421875	-1110.3193359375	1255.100830078125	405.9653625488281	-1036.472534179688	1511.378540039062	377.036865234375	-889.771728515625	1417.808959960938	315.4477844238281	-1089.084106445312	1376.668212890625	475.6673278808594	-1100.934814453125	1479.20751953125	284.6160278320312	-1041.171752929688	1476.371337890625	197.6923980712891	-1118.330200195312	1366.935180664062	140.4528961181641	-1160.536254882812	1164.498291015625	111.8130950927734	-1196.342651367188	1153.5029296875	191.4408416748047	-1105.046630859375	912.3394775390625	102.6592483520508	-1173.471923828125	912.7479248046875	51.52582550048828	-1173.04296875	1058.554321289062	86.00608062744141	-1154.290405273438	730.4408569335938	96.79605102539062	-1177.295654296875	822.9175415039062	43.28886795043945	-1111.427490234375	812.2421264648438	62.14007186889648	-922.9862060546875	1465.901245117188	511.1567687988281	-920.1129150390625	1403.144775390625	581.4932250976562	-940.9036254882812	1126.12158203125	639.3930053710938	-1002.782897949219	1120.374145507812	566.8052978515625	-862.0242309570312	892.6226806640625	633.22216796875	-913.04638671875	1056.251220703125	643.0423583984375	-828.3116455078125	711.6660766601562	544.397216796875	-796.2064208984375	784.1466064453125	554.955078125	-826.626708984375	784.4605102539062	620.742919921875	-951.6776123046875	1663.962768554688	410.4276733398438	-828.0999145507812	1687.559326171875	220.3410034179688	-774.9053344726562	1682.948364257812	304.8070678710938	-983.3980712890625	1670.825561523438	273.3544921875	-1080.97216796875	973.244140625	189.7244415283203	-957.7322387695312	1003.892517089844	535.79443359375	-881.9556274414062	1041.072387695312	464.6005249023438	-971.4149169921875	1013.956909179688	199.2748718261719	-1070.992553710938	488.7742309570312	219.1578063964844	-1066.774169921875	632.8255615234375	194.5496826171875	-1370.603881835938	98.6373291015625	275.9978637695312	-1217.938720703125	306.4227905273438	237.0843048095703	-1178.054321289062	44.17922210693359	339.7065124511719	-1241.03076171875	53.49993515014648	378.6636352539062	-1255.981201171875	45.11681747436523	264.5027465820312	-1421.76611328125	141.1671295166016	324.275390625	-842.2676391601562	524.4405517578125	460.2786865234375	-868.4271240234375	788.0155029296875	515.6904296875	-914.3654174804688	38.00193786621094	480.6189270019531	-832.56201171875	401.321044921875	442.4632263183594	-739.5686645507812	44.5587272644043	354.8358459472656	-804.7662353515625	39.66554641723633	459.8384094238281	-995.463623046875	35.645751953125	452.9450378417969	-836.6300048828125	905.7991943359375	553.6592407226562	-808.682373046875	40.20392990112305	339.145263671875	
203	2.02	-1081.568237304688	1039.825805664062	472.8923034667969	-1121.8017578125	1041.209228515625	358.4919128417969	-1109.354614257812	1129.0146484375	401.5893249511719	-869.5691528320312	1299.25048828125	304.99755859375	-1103.802490234375	1255.757690429688	407.1934204101562	-1030.57666015625	1512.141357421875	377.7390747070312	-884.2867431640625	1418.7890625	315.1892700195312	-1082.304809570312	1377.31005859375	476.8179321289062	-1095.77978515625	1479.939819335938	285.9363403320312	-1036.534912109375	1477.327392578125	198.5468444824219	-1114.0673828125	1367.965942382812	141.8170623779297	-1156.532470703125	1165.662475585938	113.1388854980469	-1191.762573242188	1154.513916015625	192.9845886230469	-1099.3017578125	914.0055541992188	103.0610656738281	-1168.062133789062	913.9168701171875	52.39488983154297	-1168.656860351562	1059.644897460938	87.20228576660156	-1147.113403320312	731.7609252929688	97.21880340576172	-1171.216430664062	824.0885620117188	43.98803329467773	-1105.142944335938	813.9461059570312	62.4465217590332	-916.2013549804688	1466.873413085938	511.1030578613281	-912.710205078125	1404.18212890625	581.4725952148438	-932.350830078125	1127.0869140625	639.4854125976562	-994.9400024414062	1121.217041015625	567.3905639648438	-852.6663208007812	893.8359375	631.9918823242188	-904.2276611328125	1057.304565429688	642.791015625	-818.9190063476562	713.2899780273438	542.3309936523438	-787.12744140625	785.8496704101562	552.8567504882812	-817.0089721679688	785.8143920898438	618.9500732421875	-946.07568359375	1664.771362304688	410.6147155761719	-823.0734252929688	1688.67333984375	220.1849365234375	-769.6351928710938	1683.946655273438	304.4818420410156	-978.17919921875	1671.83251953125	273.6947631835938	-1076.19140625	973.934814453125	191.0318450927734	-950.306396484375	1004.6708984375	536.0098266601562	-874.517822265625	1041.837646484375	464.364501953125	-966.4369506835938	1014.825622558594	199.6613311767578	-1060.840576171875	488.7678833007812	215.9375305175781	-1058.574462890625	633.17578125	192.9079437255859	-1366.977294921875	103.9882202148438	275.8117980957031	-1210.460693359375	309.0812377929688	235.3021850585938	-1177.378051757812	43.84489822387695	339.6033935546875	-1239.350708007812	55.06194305419922	378.4370422363281	-1254.6904296875	46.00652313232422	264.3511352539062	-1416.252197265625	148.6436157226562	324.0491638183594	-839.681640625	523.9610595703125	460.3199157714844	-862.5785522460938	788.0901489257812	515.416015625	-914.3472290039062	37.99877548217773	480.644775390625	-830.917724609375	400.8025817871094	442.4873352050781	-739.6034545898438	44.49977874755859	354.7295837402344	-804.7841796875	39.72248458862305	459.7735290527344	-995.5149536132812	35.66438674926758	453.0195617675781	-828.0402221679688	907.3261108398438	552.27685546875	-808.7054443359375	40.1440315246582	339.0968017578125	
